<svg width="90" height="50" viewBox="0 0 90 50" fill="none" xmlns="http://www.w3.org/2000/svg">
<g id="Logo">
<g id="Logo_2">
<mask id="mask0" mask-type="alpha" maskUnits="userSpaceOnUse" x="6" y="0" width="78" height="50">
<path id="Clip 2" fill-rule="evenodd" clip-rule="evenodd" d="M6 0H83.551V50H6V0Z" fill="white"/>
</mask>
<g mask="url(#mask0)">
<path id="Logo_3" fill-rule="evenodd" clip-rule="evenodd" d="M69.7177 39.0421C68.1279 39.8228 65.7457 40.2128 62.5694 40.2128H54.959V28.7942H61.5024C65.2008 28.7942 67.8913 29.1614 69.5753 29.8936C71.2574 30.6272 72.0999 32.14 72.0999 34.4331C72.0999 36.7264 71.3053 38.2624 69.7177 39.0421V39.0421ZM54.959 9.3622H60.2932C63.5652 9.3622 65.8878 9.71645 67.2633 10.4259C68.6381 11.1349 69.3256 12.5888 69.3256 14.7874C69.3256 16.9858 68.5795 18.4165 67.0856 19.0784C65.5919 19.741 63.3039 20.0714 60.222 20.0714H54.959V9.3622ZM73.4516 23.8299C74.305 23.4518 74.8972 23.1803 75.2294 23.014C75.5607 22.849 76.154 22.4356 77.0074 21.7731C79.5204 19.883 80.7775 16.9979 80.7775 13.1208C80.7775 9.90599 79.6625 7.02159 77.4343 4.46824C76.2008 3.09784 74.3637 2.01024 71.9226 1.20568C69.4796 0.402745 66.5756 0 63.2092 0H50.5603H43.8634H38.0061H25.1769H12.1178V9.50418H25.1769H26.84V32.7659C26.84 35.1771 26.2818 36.9857 25.1683 38.1914C24.0536 39.3971 22.7149 40 21.1502 40C17.8778 40 14.749 38.3928 11.7612 35.1771L6 43.1204C10.4564 47.7074 15.6736 50 21.6479 50C26.4368 50 30.3604 48.5349 33.4187 45.603C36.4771 42.6715 38.0061 38.251 38.0061 32.3402V9.50418H43.8634V49.5743H65.6277C72.4561 49.5743 77.2443 48.0382 79.9946 44.9643C82.3649 42.3172 83.551 39.2679 83.551 35.8158C83.551 32.6952 82.6378 30.0834 80.8128 27.9787C78.9869 25.8759 76.5332 24.4923 73.4516 23.8299V23.8299Z" fill="black"/>
</g>
</g>
</g>
</svg>
